# xmcd
#
# Track frame offsets:
#	150
#	11630
#	24208
#	36580
#	50861
#	67035
#	79342
#	90955
#	103614
#	116265
#	129326
#	141534
#	153897
#	166494
#	179726
#	195766
#	208769
#	222755
#
# Disc length: 3095 seconds
#
# Revision: 1
# Processed by: cddbd v1.4PL0 Copyright (c) Steve Scherf et al.
# Submitted via: CDmax 2.0
#
DISCID=fa0c1512
DTITLE=Sonny Terry - Blowin' The Blues
DYEAR=1999
DGENRE=Blues
TTITLE0=Mean And No Good Woman
TTITLE1=Train Whistle Blues
TTITLE2=New Love Blues
TTITLE3=Mountain Blues
TTITLE4=The New John Henry
TTITLE5=Harmonica Blues
TTITLE6=Harmonica And Washboard Breakdown
TTITLE7=Somebody's Been Talkin'
TTITLE8=Harmonica Stomp
TTITLE9=Blowin' The Blues
TTITLE10=You Got To Have Your Dollar
TTITLE11=Bus Rider Blues
TTITLE12=Working Man's Blues
TTITLE13=Back Home Blues
TTITLE14=Lonesome Train
TTITLE15=Shakedown Blues
TTITLE16=Sweet Woman
TTITLE17=Fox Chase
EXTD=YEAR: 1999
EXTT0=(Fuller]\n6 Apr 1938 NYC\nBlind boy Fuller (v, gtr) -  Sonny Terry (hca)
EXTT1=(Terry]\n28 Dec 1938 NYC\nSonny Terry (v, hca)
EXTT2=(Terry]\n28 Dec 1938 NYC\nSonny Terry (v, hca)
EXTT3=(Terry]\n23 Dec 1938, Carnegie Hall NYC\nSonny Terry (v, hca) - Bull Cit
EXTT3=y Red (wbd)
EXTT4=(Terry]\n3 Dec 1938, Carnegie Hall NYC\nSonny Terry (v, hca) - Bull Cit
EXTT4=y Red (wbd)
EXTT5=(Terry]\n5 Mar 1940 NYC\nSonny Terry (v, hca)
EXTT6=(Terry/Washington]\n5 Mar 1940 NYC\nSonny Terry (v, hca) - Bull City Re
EXTT6=d (wbd)
EXTT7=(Terry]\nMar 1940 NYC\nBlind boy Fuller (v, gtr) -  Sonny Terry (hca) - B
EXTT7=ull City Red (wbd)
EXTT8=(Terry]\n6 Mar 1940 NYC\nBlind boy Fuller (gtr) -  Sonny Terry (v, hca)
EXTT8=Bull City Red (wbd)
EXTT9=(Terry]\n14 Jun 1940 NYC\nSonny Terry (v, hca) - Bull City Red (wbd)
EXTT10=(Fuller]\n19 Jun 1940 NYC\nBlind boy Fuller (v, gtr) -  Sonny Terry (hc
EXTT10=a) - Bull City Red (wbd)
EXTT11=(Fuller]\n19 Jun 1940 NYC\nBlind boy Fuller (v, gtr) -  Sonny Terry (hc
EXTT11=a) - Bull City Red (wbd)
EXTT12=(McGhee]\n22 Oct 1940 NYC\nBrownie McGhee (v, gtr) - Sonny Terry (v, hc
EXTT12=a) - Washboard Sam (wbd)
EXTT13=(McGhee]\n23 Oct 1940 NYC\nBrownie McGhee (v, gtr) - Sonny Terry (v, hc
EXTT13=a) - Jordan Webb (wbd)
EXTT14=(Terry]\nc. 1945 NYC\nSonny Terry (v, hca) - Woody Guthrie (gtr)
EXTT15=(Terry]\nc. 1945 NYC\nSonny Terry (v, hca) -  Brownie McGhee (gtr)
EXTT16=(Terry]\nc. 1945 NYC\nSonny Terry (v, hca) -  Brownie McGhee (gtr)
EXTT17=(Terry]\nc. 1945 NYC\nSonny Terry (v, hca) -  Brownie McGhee (gtr)
PLAYORDER=
